<mxfile host="Electron" modified="2023-04-14T00:51:02.639Z" agent="Mozilla/5.0 (Macintosh; Intel Mac OS X 10_15_7) AppleWebKit/537.36 (KHTML, like Gecko) draw.io/21.1.2 Chrome/106.0.5249.199 Electron/21.4.3 Safari/537.36" etag="59ec_WUe6jFI_dmDnbDD" version="21.1.2" type="device">
  <diagram name="Page-1" id="WEm8zSNT2y5IiolVdgPL">
    <mxGraphModel dx="1114" dy="999" grid="1" gridSize="10" guides="1" tooltips="1" connect="1" arrows="1" fold="1" page="1" pageScale="1" pageWidth="850" pageHeight="1100" math="0" shadow="0">
      <root>
        <mxCell id="0" />
        <mxCell id="1" parent="0" />
        <mxCell id="HrabyioNeGo5Y6gK0oAm-7" value="" style="edgeStyle=orthogonalEdgeStyle;rounded=0;orthogonalLoop=1;jettySize=auto;html=1;" edge="1" parent="1" source="HrabyioNeGo5Y6gK0oAm-2" target="HrabyioNeGo5Y6gK0oAm-6">
          <mxGeometry relative="1" as="geometry" />
        </mxCell>
        <mxCell id="HrabyioNeGo5Y6gK0oAm-14" value="" style="edgeStyle=orthogonalEdgeStyle;rounded=0;orthogonalLoop=1;jettySize=auto;html=1;" edge="1" parent="1" source="HrabyioNeGo5Y6gK0oAm-6" target="HrabyioNeGo5Y6gK0oAm-13">
          <mxGeometry relative="1" as="geometry" />
        </mxCell>
        <mxCell id="HrabyioNeGo5Y6gK0oAm-6" value="Switch on queueItem.type" style="rounded=1;whiteSpace=wrap;html=1;" vertex="1" parent="1">
          <mxGeometry x="380" y="540" width="120" height="60" as="geometry" />
        </mxCell>
        <mxCell id="HrabyioNeGo5Y6gK0oAm-16" value="" style="edgeStyle=orthogonalEdgeStyle;rounded=0;orthogonalLoop=1;jettySize=auto;html=1;" edge="1" parent="1" source="HrabyioNeGo5Y6gK0oAm-13" target="HrabyioNeGo5Y6gK0oAm-15">
          <mxGeometry relative="1" as="geometry" />
        </mxCell>
        <mxCell id="HrabyioNeGo5Y6gK0oAm-13" value="Switch on queueItem.action" style="rounded=1;whiteSpace=wrap;html=1;" vertex="1" parent="1">
          <mxGeometry x="380" y="680" width="120" height="60" as="geometry" />
        </mxCell>
        <mxCell id="HrabyioNeGo5Y6gK0oAm-19" style="edgeStyle=orthogonalEdgeStyle;rounded=0;orthogonalLoop=1;jettySize=auto;html=1;entryX=0.5;entryY=1;entryDx=0;entryDy=0;" edge="1" parent="1" source="HrabyioNeGo5Y6gK0oAm-15" target="HrabyioNeGo5Y6gK0oAm-2">
          <mxGeometry relative="1" as="geometry">
            <mxPoint x="310" y="500" as="targetPoint" />
            <Array as="points">
              <mxPoint x="310" y="850" />
            </Array>
          </mxGeometry>
        </mxCell>
        <mxCell id="HrabyioNeGo5Y6gK0oAm-27" value="" style="edgeStyle=orthogonalEdgeStyle;rounded=0;orthogonalLoop=1;jettySize=auto;html=1;" edge="1" parent="1" source="HrabyioNeGo5Y6gK0oAm-15" target="HrabyioNeGo5Y6gK0oAm-26">
          <mxGeometry relative="1" as="geometry" />
        </mxCell>
        <mxCell id="HrabyioNeGo5Y6gK0oAm-15" value="Apply" style="rounded=1;whiteSpace=wrap;html=1;" vertex="1" parent="1">
          <mxGeometry x="380" y="820" width="120" height="60" as="geometry" />
        </mxCell>
        <mxCell id="HrabyioNeGo5Y6gK0oAm-25" value="" style="group" vertex="1" connectable="0" parent="1">
          <mxGeometry x="270" y="370" width="135" height="180" as="geometry" />
        </mxCell>
        <mxCell id="HrabyioNeGo5Y6gK0oAm-12" value="" style="group" vertex="1" connectable="0" parent="HrabyioNeGo5Y6gK0oAm-25">
          <mxGeometry y="55" width="110" height="125" as="geometry" />
        </mxCell>
        <mxCell id="HrabyioNeGo5Y6gK0oAm-22" style="edgeStyle=orthogonalEdgeStyle;rounded=0;orthogonalLoop=1;jettySize=auto;html=1;" edge="1" parent="HrabyioNeGo5Y6gK0oAm-12" source="HrabyioNeGo5Y6gK0oAm-2">
          <mxGeometry relative="1" as="geometry">
            <mxPoint y="35" as="targetPoint" />
          </mxGeometry>
        </mxCell>
        <mxCell id="HrabyioNeGo5Y6gK0oAm-2" value="Queue empty" style="rhombus;whiteSpace=wrap;html=1;rounded=1;" vertex="1" parent="HrabyioNeGo5Y6gK0oAm-12">
          <mxGeometry width="80" height="80" as="geometry" />
        </mxCell>
        <mxCell id="HrabyioNeGo5Y6gK0oAm-23" value="YES" style="text;html=1;align=center;verticalAlign=middle;resizable=0;points=[];autosize=1;strokeColor=none;fillColor=none;" vertex="1" parent="HrabyioNeGo5Y6gK0oAm-25">
          <mxGeometry width="50" height="30" as="geometry" />
        </mxCell>
        <mxCell id="HrabyioNeGo5Y6gK0oAm-24" value="NO" style="text;html=1;align=center;verticalAlign=middle;resizable=0;points=[];autosize=1;strokeColor=none;fillColor=none;" vertex="1" parent="HrabyioNeGo5Y6gK0oAm-25">
          <mxGeometry x="95" y="60" width="40" height="30" as="geometry" />
        </mxCell>
        <mxCell id="HrabyioNeGo5Y6gK0oAm-29" value="" style="edgeStyle=orthogonalEdgeStyle;rounded=0;orthogonalLoop=1;jettySize=auto;html=1;" edge="1" parent="1" source="HrabyioNeGo5Y6gK0oAm-26" target="HrabyioNeGo5Y6gK0oAm-28">
          <mxGeometry relative="1" as="geometry" />
        </mxCell>
        <mxCell id="HrabyioNeGo5Y6gK0oAm-26" value="Notification" style="rounded=1;whiteSpace=wrap;html=1;" vertex="1" parent="1">
          <mxGeometry x="380" y="960" width="120" height="60" as="geometry" />
        </mxCell>
        <mxCell id="HrabyioNeGo5Y6gK0oAm-28" value="Update UI" style="rounded=1;whiteSpace=wrap;html=1;" vertex="1" parent="1">
          <mxGeometry x="380" y="1100" width="120" height="60" as="geometry" />
        </mxCell>
      </root>
    </mxGraphModel>
  </diagram>
</mxfile>
